<svg width="46" height="46" viewBox="0 0 46 46" fill="none" xmlns="http://www.w3.org/2000/svg">
<path fill-rule="evenodd" clip-rule="evenodd" d="M42.9737 0C43.7763 0 44.5461 0.318813 45.1136 0.886333C45.6811 1.45387 46 2.22365 46 3.02627V14.533C46 14.535 46 14.5371 46 14.5391V34.47C46 34.4721 46 34.4742 46 34.4763V42.9737C46 43.7763 45.6811 44.5461 45.1136 45.1136C44.5461 45.6811 43.7763 46 42.9737 46H3.02628C2.22367 46 1.45387 45.6811 0.886342 45.1136C0.318822 44.5461 8.97148e-06 43.7763 8.97148e-06 42.9737V41.5286C-9.04846e-06 41.5265 4.98123e-06 41.5244 8.97148e-06 41.5223V3.02627C1.52086e-05 2.22366 0.318813 1.45387 0.886342 0.886333C1.45387 0.318801 2.22367 1.48939e-05 3.02628 0H42.9737ZM25.0149 38.295C25.0098 38.2958 25.0046 38.2966 24.9995 38.2974L21.0274 38.9225C21.0223 38.9234 21.0171 38.9242 21.012 38.9249L1.21049 42.0416V42.9737C1.21049 43.4552 1.40182 43.9171 1.74232 44.2576C2.08283 44.5981 2.54472 44.7894 3.02628 44.7895H42.9737C43.4552 44.7895 43.9171 44.5981 44.2576 44.2576C44.5982 43.9171 44.7895 43.4552 44.7895 42.9737V35.1825L25.0149 38.295ZM1.21049 40.8162L20.3688 37.8007C20.7163 33.5896 19.5915 31.1052 18.092 29.6819C16.5182 28.1881 14.4237 27.7588 12.8305 27.8576C12.5784 27.8733 12.3432 27.7308 12.2403 27.5001C9.35692 21.0375 9.84836 15.9919 12.2223 12.529C12.7632 11.7401 13.3969 11.0407 14.1017 10.4307L1.21049 8.03934V40.8162ZM32.5557 13.0058C30.3606 9.96499 26.598 8.45837 22.8075 8.50953C19.0161 8.56072 15.3079 10.169 13.2208 13.2135C11.1922 16.1727 10.6043 20.6256 13.1827 26.6342C14.9576 26.6167 17.1884 27.1552 18.9254 28.804C20.7191 30.5065 21.8914 33.3012 21.5974 37.6074L24.305 37.1812C24.3222 34.4547 24.6765 31.8592 25.9402 29.9361C27.2729 27.908 29.5321 26.7436 33.0715 26.795C35.4364 20.5082 34.6915 15.9644 32.5557 13.0058ZM34.3103 13.5331C36.1358 16.9293 36.3961 21.645 34.0465 27.6329C33.9522 27.8731 33.716 28.0271 33.4581 28.0165C29.9633 27.8722 28.0421 28.9418 26.9519 30.6009C25.9123 32.1828 25.5508 34.4079 25.5174 36.9903L44.7895 33.9571V15.0633L34.3103 13.5331ZM3.02628 1.21048C2.54472 1.21049 2.08283 1.40179 1.74232 1.74231C1.40181 2.08283 1.21049 2.54471 1.21049 3.02627V6.80822L15.4196 9.44403C17.5821 8.0474 20.192 7.33422 22.7912 7.29912C26.8395 7.24447 30.9702 8.83334 33.4547 12.1847L44.7895 13.8399V3.02627C44.7894 2.5447 44.5981 2.08283 44.2576 1.74231C43.9171 1.40181 43.4552 1.21048 42.9737 1.21048H3.02628Z" fill="white"/>
<path d="M32.5557 13.0058C30.3606 9.96499 26.598 8.45837 22.8075 8.50953C19.0161 8.56072 15.3079 10.169 13.2208 13.2135C11.1922 16.1727 10.6043 20.6256 13.1827 26.6342C14.9576 26.6167 17.1884 27.1552 18.9254 28.804C20.7191 30.5065 21.8914 33.3012 21.5974 37.6074L24.305 37.1812C24.3222 34.4547 24.6765 31.8592 25.9402 29.9361C27.2729 27.908 29.5321 26.7436 33.0715 26.795C35.4364 20.5082 34.6915 15.9644 32.5557 13.0058Z" fill="white"/>
<path d="M32.5557 13.0058C30.3606 9.96499 26.598 8.45837 22.8075 8.50953C19.0161 8.56072 15.3079 10.169 13.2208 13.2135C11.1922 16.1727 10.6043 20.6256 13.1827 26.6342C14.9576 26.6167 17.1884 27.1552 18.9254 28.804C20.7191 30.5065 21.8914 33.3012 21.5974 37.6074L24.305 37.1812C24.3222 34.4547 24.6765 31.8592 25.9402 29.9361C27.2729 27.908 29.5321 26.7436 33.0715 26.795C35.4364 20.5082 34.6915 15.9644 32.5557 13.0058Z" fill="#0073FA"/>
<path d="M34.3103 13.5331C36.1358 16.9293 36.3961 21.645 34.0465 27.6329C33.9522 27.8731 33.716 28.0271 33.4581 28.0165C29.9633 27.8722 28.0421 28.9418 26.9519 30.6009C25.9123 32.1828 25.5508 34.4079 25.5174 36.9903L44.7895 33.9571V15.0633L34.3103 13.5331Z" fill="#19AA1E"/>
<path d="M1.21049 40.8162L20.3688 37.8007C20.7163 33.5896 19.5915 31.1052 18.092 29.6819C16.5182 28.1881 14.4237 27.7588 12.8305 27.8576C12.5784 27.8733 12.3432 27.7308 12.2403 27.5001C9.35692 21.0375 9.84836 15.9919 12.2223 12.529C12.7632 11.7401 13.3969 11.0407 14.1017 10.4307L1.21049 8.03934V40.8162Z" fill="#19AA1E"/>
<path d="M25.0149 38.295C25.0098 38.2958 25.0046 38.2966 24.9995 38.2974L21.0274 38.9225C21.0223 38.9234 21.0171 38.9242 21.012 38.9249L1.21049 42.0416V42.9737C1.21049 43.4552 1.40182 43.9171 1.74232 44.2576C2.08283 44.5981 2.54472 44.7894 3.02628 44.7895H42.9737C43.4552 44.7895 43.9171 44.5981 44.2576 44.2576C44.5982 43.9171 44.7895 43.4552 44.7895 42.9737V35.1825L25.0149 38.295Z" fill="#82D714"/>
<path d="M3.02628 1.21048C2.54472 1.21049 2.08283 1.40179 1.74232 1.74231C1.40181 2.08283 1.21049 2.54471 1.21049 3.02627V6.80822L15.4196 9.44403C17.5821 8.0474 20.192 7.33422 22.7912 7.29912C26.8395 7.24447 30.9702 8.83334 33.4547 12.1847L44.7895 13.8399V3.02627C44.7894 2.5447 44.5981 2.08283 44.2576 1.74231C43.9171 1.40181 43.4552 1.21048 42.9737 1.21048H3.02628Z" fill="#FFB919"/>
</svg>
