<svg width="28" height="28" viewBox="0 0 28 28" fill="none" xmlns="http://www.w3.org/2000/svg">
<path fill-rule="evenodd" clip-rule="evenodd" d="M26.1579 0C26.6464 0 27.115 0.19406 27.4604 0.539507C27.8059 0.884966 28 1.35353 28 1.84208V8.84617C28 8.8474 28 8.84864 28 8.84988V20.9817C28 20.983 28 20.9843 28 20.9856V26.1579C28 26.6464 27.8059 27.115 27.4604 27.4605C27.115 27.8059 26.6464 28 26.1579 28H1.84208C1.35354 28 0.884966 27.8059 0.539512 27.4605C0.194065 27.115 5.4609e-06 26.6464 5.4609e-06 26.1579V25.2783C-5.50775e-06 25.277 3.03205e-06 25.2757 5.4609e-06 25.2744V1.84208C9.25739e-06 1.35353 0.19406 0.884964 0.539512 0.539507C0.884966 0.194053 1.35354 9.06583e-06 1.84208 0H26.1579ZM15.2264 23.31C15.2233 23.3105 15.2202 23.311 15.2171 23.3114L12.7993 23.692C12.7962 23.6925 12.793 23.693 12.7899 23.6934L0.736819 25.5905V26.1579C0.736819 26.451 0.853279 26.7321 1.06054 26.9394C1.26781 27.1467 1.54896 27.2631 1.84208 27.2631H26.1579C26.451 27.2631 26.7321 27.1467 26.9394 26.9394C27.1467 26.7321 27.2631 26.451 27.2631 26.1579V21.4154L15.2264 23.31ZM0.736819 24.8446L12.3984 23.0091C12.6099 20.4459 11.9252 18.9336 11.0125 18.0673C10.0546 17.158 8.77963 16.8966 7.80986 16.9568C7.65643 16.9663 7.51324 16.8796 7.4506 16.7392C5.69551 12.8054 5.99465 9.73423 7.43968 7.62636C7.76891 7.14612 8.15461 6.72043 8.58363 6.34914L0.736819 4.89351V24.8446ZM19.8165 7.91658C18.4803 6.06564 16.1901 5.14857 13.8828 5.17971C11.575 5.21087 9.31787 6.18983 8.04744 8.043C6.81263 9.84423 6.45479 12.5547 8.02426 16.2121C9.1046 16.2015 10.4625 16.5292 11.5198 17.5329C12.6116 18.5692 13.3252 20.2703 13.1462 22.8914L14.7943 22.632C14.8048 20.9724 15.0205 19.3926 15.7897 18.222C16.6009 16.9875 17.9761 16.2787 20.1305 16.31C21.57 12.4833 21.1165 9.71743 19.8165 7.91658ZM20.8845 8.23754C21.9957 10.3048 22.1541 13.1752 20.724 16.82C20.6666 16.9662 20.5228 17.06 20.3658 17.0535C18.2385 16.9657 17.0691 17.6167 16.4055 18.6266C15.7727 19.5895 15.5527 20.9439 15.5323 22.5159L27.2631 20.6695V9.16894L20.8845 8.23754ZM1.84208 0.736814C1.54896 0.736823 1.26781 0.853266 1.06054 1.06054C0.853273 1.26781 0.736823 1.54895 0.736819 1.84208V4.14413L9.38585 5.74854C10.7022 4.89842 12.2908 4.4643 13.8729 4.44294C16.3371 4.40968 18.8514 5.37681 20.3637 7.41679L27.2631 8.42431V1.84208C27.2631 1.54895 27.1467 1.26781 26.9394 1.06054C26.7321 0.853273 26.451 0.736814 26.1579 0.736814H1.84208Z" fill="white"/>
<path d="M19.8165 7.91658C18.4803 6.06564 16.1901 5.14857 13.8828 5.17971C11.575 5.21087 9.31787 6.18983 8.04744 8.043C6.81263 9.84423 6.45479 12.5547 8.02426 16.2121C9.1046 16.2015 10.4625 16.5292 11.5198 17.5329C12.6116 18.5692 13.3252 20.2703 13.1462 22.8914L14.7943 22.632C14.8048 20.9724 15.0205 19.3926 15.7897 18.222C16.6009 16.9875 17.9761 16.2787 20.1305 16.31C21.57 12.4833 21.1165 9.71743 19.8165 7.91658Z" fill="white"/>
<path d="M19.8165 7.91658C18.4803 6.06564 16.1901 5.14857 13.8828 5.17971C11.575 5.21087 9.31787 6.18983 8.04744 8.043C6.81263 9.84423 6.45479 12.5547 8.02426 16.2121C9.1046 16.2015 10.4625 16.5292 11.5198 17.5329C12.6116 18.5692 13.3252 20.2703 13.1462 22.8914L14.7943 22.632C14.8048 20.9724 15.0205 19.3926 15.7897 18.222C16.6009 16.9875 17.9761 16.2787 20.1305 16.31C21.57 12.4833 21.1165 9.71743 19.8165 7.91658Z" fill="#0073FA"/>
<path d="M20.8845 8.23754C21.9957 10.3048 22.1541 13.1752 20.724 16.82C20.6666 16.9662 20.5228 17.06 20.3658 17.0535C18.2385 16.9657 17.0691 17.6167 16.4055 18.6266C15.7727 19.5895 15.5527 20.9439 15.5323 22.5159L27.2631 20.6695V9.16894L20.8845 8.23754Z" fill="#19AA1E"/>
<path d="M0.736819 24.8446L12.3984 23.0091C12.6099 20.4459 11.9252 18.9336 11.0125 18.0673C10.0546 17.158 8.77963 16.8966 7.80986 16.9568C7.65643 16.9663 7.51324 16.8796 7.4506 16.7392C5.69551 12.8054 5.99465 9.73423 7.43968 7.62636C7.76891 7.14612 8.15461 6.72043 8.58363 6.34914L0.736819 4.89351V24.8446Z" fill="#19AA1E"/>
<path d="M15.2264 23.31C15.2233 23.3105 15.2202 23.311 15.2171 23.3114L12.7993 23.692C12.7962 23.6925 12.793 23.693 12.7899 23.6934L0.736819 25.5905V26.1579C0.736819 26.451 0.853279 26.7321 1.06054 26.9394C1.26781 27.1467 1.54896 27.2631 1.84208 27.2631H26.1579C26.451 27.2631 26.7321 27.1467 26.9394 26.9394C27.1467 26.7321 27.2631 26.451 27.2631 26.1579V21.4154L15.2264 23.31Z" fill="#82D714"/>
<path d="M1.84208 0.736814C1.54896 0.736823 1.26781 0.853266 1.06054 1.06054C0.853273 1.26781 0.736823 1.54895 0.736819 1.84208V4.14413L9.38585 5.74854C10.7022 4.89842 12.2908 4.4643 13.8729 4.44294C16.3371 4.40968 18.8514 5.37681 20.3637 7.41679L27.2631 8.42431V1.84208C27.2631 1.54895 27.1467 1.26781 26.9394 1.06054C26.7321 0.853273 26.451 0.736814 26.1579 0.736814H1.84208Z" fill="#FFB919"/>
</svg>
