<svg width="34" height="31" viewBox="0 0 34 31" fill="none" xmlns="http://www.w3.org/2000/svg">
<path d="M20.3187 20.9784C20.3187 26.5132 15.7702 31 10.1594 31C4.5485 31 0 26.5132 0 20.9784C0 15.4437 4.5485 10.9569 10.1594 10.9569C15.7702 10.9569 20.3187 15.4437 20.3187 20.9784Z" fill="#67DD70"/>
<path d="M33.8645 8.15086C33.8645 12.6525 30.1651 16.3017 25.6016 16.3017C21.0381 16.3017 17.3386 12.6525 17.3386 8.15086C17.3386 3.64927 21.0381 0 25.6016 0C30.1651 0 33.8645 3.64927 33.8645 8.15086Z" fill="#4CA7F7"/>
<path d="M15.9841 6.01293C15.9841 8.07924 14.286 9.75431 12.1912 9.75431C10.0965 9.75431 8.39841 8.07924 8.39841 6.01293C8.39841 3.94662 10.0965 2.27155 12.1912 2.27155C14.286 2.27155 15.9841 3.94662 15.9841 6.01293Z" fill="#8F60E1"/>
<path d="M34 23.6509C34 26.9717 31.2709 29.6638 27.9044 29.6638C24.5379 29.6638 21.8088 26.9717 21.8088 23.6509C21.8088 20.33 24.5379 17.6379 27.9044 17.6379C31.2709 17.6379 34 20.33 34 23.6509Z" fill="#EA5059"/>
</svg>
