<svg width="26" height="24" viewBox="0 0 26 24" fill="none" xmlns="http://www.w3.org/2000/svg">
<path d="M15.5378 16.2414C15.5378 20.5263 12.0596 24 7.76892 24C3.47827 24 0 20.5263 0 16.2414C0 11.9564 3.47827 8.48276 7.76892 8.48276C12.0596 8.48276 15.5378 11.9564 15.5378 16.2414Z" fill="#67DD70"/>
<path d="M25.8964 6.31035C25.8964 9.79545 23.0674 12.6207 19.5777 12.6207C16.088 12.6207 13.259 9.79545 13.259 6.31035C13.259 2.82524 16.088 0 19.5777 0C23.0674 0 25.8964 2.82524 25.8964 6.31035Z" fill="#4CA7F7"/>
<path d="M12.2231 4.65517C12.2231 6.25489 10.9246 7.55172 9.32271 7.55172C7.72086 7.55172 6.42231 6.25489 6.42231 4.65517C6.42231 3.05545 7.72086 1.75862 9.32271 1.75862C10.9246 1.75862 12.2231 3.05545 12.2231 4.65517Z" fill="#8F60E1"/>
<path d="M26 18.3103C26 20.8813 23.913 22.9655 21.3386 22.9655C18.7643 22.9655 16.6773 20.8813 16.6773 18.3103C16.6773 15.7394 18.7643 13.6552 21.3386 13.6552C23.913 13.6552 26 15.7394 26 18.3103Z" fill="#EA5059"/>
</svg>
