<svg width="50" height="46" viewBox="0 0 50 46" fill="none" xmlns="http://www.w3.org/2000/svg">
<path d="M29.7012 30.6494C29.7012 38.7356 23.0524 45.2908 14.8506 45.2908C6.64884 45.2908 0 38.7356 0 30.6494C0 22.5632 6.64884 16.008 14.8506 16.008C23.0524 16.008 29.7012 22.5632 29.7012 30.6494Z" fill="#67DD70"/>
<path d="M49.502 11.9084C49.502 18.4852 44.0943 23.8167 37.4235 23.8167C30.7527 23.8167 25.345 18.4852 25.345 11.9084C25.345 5.33156 30.7527 0 37.4235 0C44.0943 0 49.502 5.33156 49.502 11.9084Z" fill="#4CA7F7"/>
<path d="M23.3649 8.78486C23.3649 11.8037 20.8827 14.251 17.8207 14.251C14.7587 14.251 12.2765 11.8037 12.2765 8.78486C12.2765 5.766 14.7587 3.31873 17.8207 3.31873C20.8827 3.31873 23.3649 5.766 23.3649 8.78486Z" fill="#8F60E1"/>
<path d="M49.7 34.5538C49.7 39.4055 45.7107 43.3386 40.7896 43.3386C35.8686 43.3386 31.8793 39.4055 31.8793 34.5538C31.8793 29.702 35.8686 25.7689 40.7896 25.7689C45.7107 25.7689 49.7 29.702 49.7 34.5538Z" fill="#EA5059"/>
</svg>
