<svg width="211" height="61" viewBox="0 0 211 61" fill="none" xmlns="http://www.w3.org/2000/svg">
<path d="M69.115 0H16.5192C15.285 0 14.1933 0.854445 13.9084 2.04117L0 59.099V59.2889C0 59.9534 0.52216 60.4756 1.18673 60.5231L1.51901 60.5705C1.75636 60.618 1.9937 60.5705 2.23105 60.4756C21.456 51.9312 40.7285 43.3867 59.9534 34.8423C60.1908 34.7474 60.618 34.5575 60.9503 34.2252C61.5674 33.6081 61.7098 32.8011 61.7573 32.6587C62.0421 31.4245 65.5548 18.9876 70.3966 1.70889C70.634 0.854446 70.0169 0 69.115 0Z" fill="white"/>
<path d="M32.7774 14.4069H23.3785L24.6602 7.04916H51.6226L50.341 14.4069H40.9421L36.7173 38.3787H28.5526L32.7774 14.4069Z" fill="#FF5555"/>
<path d="M91.0931 34.2727H83.4032L82.2639 36.0765H75.8081L89.7165 13.766H91.5678L97.5964 36.0765H91.6153L91.0931 34.2727ZM88.957 24.7789L86.2513 29.6682H89.9539L88.957 24.7789Z" fill="white"/>
<path d="M121.616 14.1458L117.771 36.0765H112.074L115.018 19.3199H110.081C109.274 23.6871 108.419 27.1048 107.517 29.5732C106.616 32.0416 105.524 33.798 104.337 34.8898C103.103 35.9816 101.584 36.5037 99.78 36.5037C99.4477 36.5037 99.1154 36.4562 98.6882 36.4088C98.261 36.3138 97.9287 36.2189 97.6439 36.124L98.4983 31.2821C98.6407 31.3296 98.9255 31.3296 99.3528 31.3296C100.492 31.3296 101.489 30.3327 102.343 28.3865C103.198 26.3928 104.005 23.2124 104.764 18.7978L105.571 14.1933L121.616 14.1458Z" fill="white"/>
<path d="M125.983 14.1458H131.679L130.492 20.9813H132.961C135.477 20.9813 137.47 21.6459 138.989 22.9276C140.461 24.2092 141.22 25.9181 141.22 28.1017C141.22 29.6682 140.793 31.0922 139.986 32.279C139.179 33.5132 138.04 34.4151 136.569 35.1271C135.097 35.7917 133.388 36.124 131.489 36.124H122.138L125.983 14.1458ZM132.486 31.0922C133.388 31.0922 134.053 30.8549 134.575 30.3802C135.097 29.9055 135.334 29.241 135.334 28.434C135.334 27.6745 135.097 27.0574 134.67 26.5827C134.243 26.1555 133.625 25.9181 132.866 25.9181H129.638L128.689 31.0448L132.486 31.0922Z" fill="white"/>
<path d="M163.294 14.1458L159.449 36.0765H153.752L154.892 29.6207H153.847C153.515 29.6207 153.23 29.6207 153.04 29.5732L147.676 36.0765H141.22L147.866 28.0542C146.869 27.3897 146.157 26.6301 145.635 25.6333C145.113 24.6839 144.876 23.5921 144.876 22.3579C144.876 20.744 145.303 19.3199 146.157 18.0382C147.012 16.804 148.246 15.8072 149.812 15.1426C151.379 14.4781 153.183 14.0983 155.224 14.0983L163.294 14.1458ZM156.648 19.13H154.132C153.088 19.13 152.233 19.3674 151.616 19.8895C150.999 20.4117 150.667 21.0763 150.667 21.9782C150.667 22.7852 150.952 23.4497 151.521 23.9244C152.091 24.3991 152.85 24.6364 153.8 24.6364H155.699L156.648 19.13Z" fill="white"/>
<path d="M167.661 14.1458H173.357L171.98 22.1681H180.003L181.379 14.1458H187.076L183.231 36.0765H177.534L179.053 27.2947H171.031L169.512 36.0765H163.816L167.661 14.1458Z" fill="white"/>
<path d="M193.864 35.1271C192.202 34.2252 190.873 32.9435 189.924 31.3296C188.974 29.7156 188.5 27.8643 188.5 25.8706C188.5 23.6396 189.069 21.6459 190.209 19.7946C191.348 17.9433 192.867 16.4718 194.813 15.4274C196.759 14.3357 198.895 13.8135 201.174 13.8135C203.452 13.8135 205.494 14.3831 207.202 15.4749C208.911 16.5667 210.193 18.1332 211 20.1269L206.348 22.8801C205.209 20.3168 203.357 19.0351 200.794 19.0351C199.56 19.0351 198.421 19.3199 197.471 19.8895C196.474 20.4592 195.715 21.2187 195.145 22.2155C194.576 23.2124 194.291 24.3516 194.291 25.5858C194.291 27.2947 194.813 28.6713 195.81 29.6682C196.807 30.7125 198.183 31.2346 199.892 31.2346C201.031 31.2346 202.123 30.9498 203.073 30.4277C204.022 29.9055 204.924 29.0511 205.778 27.9118L209.813 31.0448C208.627 32.7537 207.155 34.1303 205.399 35.0322C203.595 35.9816 201.649 36.4562 199.512 36.4562C197.424 36.5037 195.525 36.029 193.864 35.1271Z" fill="white"/>
<path d="M167.661 14.1458L163.816 36.0765H169.512C170.034 33.1334 170.556 30.1902 171.079 27.2946C173.737 27.2946 176.395 27.2946 179.053 27.3421C179.386 25.6332 179.67 23.9244 180.003 22.1681H171.98C172.455 19.5098 172.93 16.8514 173.404 14.1457C171.458 14.1457 169.56 14.1458 167.661 14.1458Z" fill="white"/>
<path d="M163.294 14.1458L159.401 36.0764H153.705L157.502 14.1457" fill="white"/>
<path d="M76.126 42.7964H79.813V47.5123H79.2557V43.2965H76.6834V47.5123H76.126V42.7964Z" fill="white"/>
<path d="M81.1152 42.7964H82.7729C83.0778 42.7964 83.3422 42.8559 83.5661 42.975C83.7947 43.0893 83.971 43.2513 84.0948 43.4609C84.2187 43.6657 84.2806 43.8991 84.2806 44.1611C84.2806 44.4279 84.2187 44.6661 84.0948 44.8757C83.971 45.0853 83.7947 45.2496 83.5661 45.3687C83.3422 45.483 83.0778 45.5402 82.7729 45.5402H81.6726V47.5123H81.1152V42.7964ZM82.7587 45.04C83.0588 45.04 83.2898 44.9614 83.4518 44.8042C83.6185 44.6422 83.7018 44.4303 83.7018 44.1683C83.7018 43.911 83.6185 43.7014 83.4518 43.5395C83.2898 43.3775 83.0588 43.2965 82.7587 43.2965H81.6726V45.04H82.7587Z" fill="white"/>
<path d="M89.0411 42.7178V47.5123H88.4838V43.8539L85.4113 47.5909H85.2112V42.7964H85.7686V46.4548L88.8411 42.7178H89.0411Z" fill="white"/>
<path d="M90.34 42.7964H93.3625V43.2965H90.8973V44.7399H92.7837V45.2401H90.8973V47.0121H93.4482V47.5123H90.34V42.7964Z" fill="white"/>
<path d="M98.7244 42.7178V47.5123H98.167V44.1325L96.6594 46.1761H96.4593L94.9445 44.1183V47.5123H94.3871V42.7178H94.5872L96.5522 45.4401L98.5314 42.7178H98.7244Z" fill="white"/>
<path d="M105.365 42.7964V47.5123H104.807V45.6116C104.65 45.6831 104.469 45.7355 104.264 45.7688C104.064 45.7974 103.867 45.8117 103.671 45.8117C103.081 45.8117 102.623 45.6616 102.299 45.3615C101.976 45.0614 101.814 44.6113 101.814 44.0111V42.7964H102.371V43.9753C102.371 44.4374 102.483 44.7756 102.707 44.99C102.931 45.2043 103.257 45.3115 103.686 45.3115C103.876 45.3115 104.071 45.2949 104.272 45.2615C104.476 45.2282 104.655 45.1758 104.807 45.1043V42.7964H105.365Z" fill="white"/>
<path d="M106.661 42.7964H109.684V43.2965H107.219V44.7399H109.105V45.2401H107.219V47.0121H109.769V47.5123H106.661V42.7964Z" fill="white"/>
<path d="M110.708 42.7964H112.366C112.671 42.7964 112.935 42.8559 113.159 42.975C113.388 43.0893 113.564 43.2513 113.688 43.4609C113.812 43.6657 113.874 43.8991 113.874 44.1611C113.874 44.4279 113.812 44.6661 113.688 44.8757C113.564 45.0853 113.388 45.2496 113.159 45.3687C112.935 45.483 112.671 45.5402 112.366 45.5402H111.266V47.5123H110.708V42.7964ZM112.352 45.04C112.652 45.04 112.883 44.9614 113.045 44.8042C113.212 44.6422 113.295 44.4303 113.295 44.1683C113.295 43.911 113.212 43.7014 113.045 43.5395C112.883 43.3775 112.652 43.2965 112.352 43.2965H111.266V45.04H112.352Z" fill="white"/>
<path d="M114.804 42.7964H115.362V44.7399H118.006V42.7964H118.563V47.5123H118.006V45.2401H115.362V47.5123H114.804V42.7964Z" fill="white"/>
<path d="M119.863 42.7964H120.421V44.6542H121.457C121.776 44.6542 122.055 44.7161 122.293 44.8399C122.531 44.959 122.712 45.1281 122.836 45.3473C122.964 45.5616 123.029 45.8069 123.029 46.0832C123.029 46.3595 122.964 46.6072 122.836 46.8263C122.712 47.0407 122.531 47.2098 122.293 47.3337C122.055 47.4527 121.776 47.5123 121.457 47.5123H119.863V42.7964ZM121.45 47.0121C121.769 47.0121 122.016 46.9264 122.193 46.7549C122.369 46.5834 122.457 46.3619 122.457 46.0904C122.457 45.8141 122.369 45.5902 122.193 45.4187C122.016 45.2472 121.769 45.1615 121.45 45.1615H120.421V47.0121H121.45ZM123.965 42.7964H124.522V47.5123H123.965V42.7964Z" fill="white"/>
<path d="M128.581 47.5123L127.309 45.5759L126.03 47.5123H125.38L127.002 45.0972L125.494 42.7964H126.137L127.309 44.6327L128.474 42.7964H129.117L127.63 45.1043L129.231 47.5123H128.581Z" fill="white"/>
<path d="M135.925 42.7178V47.5123H135.368V43.8539L132.296 47.5909H132.096V42.7964H132.653V46.4548L135.725 42.7178H135.925Z" fill="white"/>
<path d="M142.935 47.5123H139.227V42.7964H139.784V47.0121H142.357V42.7964H142.914V47.0121H143.493V48.5198H142.935V47.5123Z" fill="white"/>
<path d="M146.871 44.9185C147.161 45.0043 147.388 45.1567 147.55 45.3758C147.712 45.5902 147.793 45.8498 147.793 46.1547C147.793 46.4167 147.733 46.6501 147.614 46.8549C147.495 47.0598 147.321 47.2217 147.092 47.3408C146.868 47.4551 146.604 47.5123 146.299 47.5123H144.356V42.7964H145.978C146.387 42.7964 146.714 42.9083 146.957 43.1322C147.2 43.3561 147.321 43.6419 147.321 43.9896C147.321 44.1849 147.281 44.3612 147.2 44.5184C147.123 44.6756 147.014 44.809 146.871 44.9185ZM144.913 43.2965V44.7613H145.921C146.187 44.7613 146.392 44.6946 146.535 44.5613C146.678 44.4279 146.749 44.2493 146.749 44.0254C146.749 43.8015 146.678 43.6252 146.535 43.4966C146.397 43.3632 146.192 43.2965 145.921 43.2965H144.913ZM146.242 47.0121C146.552 47.0121 146.792 46.9335 146.964 46.7763C147.135 46.6144 147.221 46.4024 147.221 46.1404C147.221 45.8784 147.135 45.6688 146.964 45.5116C146.792 45.3496 146.552 45.2687 146.242 45.2687H144.913V47.0121H146.242Z" fill="white"/>
<path d="M148.759 42.7964H151.781V43.2965H149.316V44.7399H151.202V45.2401H149.316V47.0121H151.867V47.5123H148.759V42.7964Z" fill="white"/>
<path d="M153.949 43.2965H152.291V42.7964H156.171V43.2965H154.507V47.5123H153.949V43.2965Z" fill="white"/>
<path d="M156.958 42.7964H157.515V44.7399H160.159V42.7964H160.716V47.5123H160.159V45.2401H157.515V47.5123H156.958V42.7964Z" fill="white"/>
<path d="M162.017 42.7964H162.574V44.6542H163.61C163.929 44.6542 164.208 44.7161 164.446 44.8399C164.684 44.959 164.865 45.1281 164.989 45.3473C165.118 45.5616 165.182 45.8069 165.182 46.0832C165.182 46.3595 165.118 46.6072 164.989 46.8263C164.865 47.0407 164.684 47.2098 164.446 47.3337C164.208 47.4527 163.929 47.5123 163.61 47.5123H162.017V42.7964ZM163.603 47.0121C163.922 47.0121 164.17 46.9264 164.346 46.7549C164.522 46.5834 164.61 46.3619 164.61 46.0904C164.61 45.8141 164.522 45.5902 164.346 45.4187C164.17 45.2472 163.922 45.1615 163.603 45.1615H162.574V47.0121H163.603ZM166.118 42.7964H166.675V47.5123H166.118V42.7964Z" fill="white"/>
<path d="M170.734 47.5123L169.462 45.5759L168.183 47.5123H167.533L169.155 45.0972L167.647 42.7964H168.29L169.462 44.6327L170.627 42.7964H171.27L169.784 45.1043L171.384 47.5123H170.734Z" fill="white"/>
<path d="M178.586 42.7178V47.5123H178.029V44.1325L176.521 46.1761H176.321L174.806 44.1183V47.5123H174.249V42.7178H174.449L176.414 45.4401L178.393 42.7178H178.586Z" fill="white"/>
<path d="M179.887 42.7964H182.91V43.2965H180.444V44.7399H182.331V45.2401H180.444V47.0121H182.995V47.5123H179.887V42.7964Z" fill="white"/>
<path d="M185.077 43.2965H183.42V42.7964H187.3V43.2965H185.635V47.5123H185.077V43.2965Z" fill="white"/>
<path d="M190.421 46.5548H188.106L187.706 47.5123H187.12L189.164 42.7178H189.371L191.414 47.5123H190.821L190.421 46.5548ZM189.264 43.7324L188.32 46.0546H190.207L189.264 43.7324Z" fill="white"/>
<path d="M195.774 42.7964V47.5123H195.216V43.2965H193.373C193.339 44.3779 193.27 45.2258 193.166 45.8403C193.061 46.45 192.908 46.8906 192.708 47.1622C192.513 47.4289 192.251 47.5623 191.922 47.5623C191.813 47.5623 191.72 47.5456 191.644 47.5123V47.0264C191.653 47.0312 191.675 47.0359 191.708 47.0407C191.746 47.0455 191.789 47.0478 191.837 47.0478C192.184 47.0478 192.43 46.7549 192.573 46.169C192.72 45.5783 192.808 44.6899 192.837 43.5038L192.851 42.7964H195.774Z" fill="white"/>
<path d="M200.553 42.7964V47.5123H199.996V43.2965H198.153C198.119 44.3779 198.05 45.2258 197.945 45.8403C197.841 46.45 197.688 46.8906 197.488 47.1622C197.293 47.4289 197.031 47.5623 196.702 47.5623C196.593 47.5623 196.5 47.5456 196.423 47.5123V47.0264C196.433 47.0312 196.454 47.0359 196.488 47.0407C196.526 47.0455 196.569 47.0478 196.616 47.0478C196.964 47.0478 197.209 46.7549 197.352 46.169C197.5 45.5783 197.588 44.6899 197.617 43.5038L197.631 42.7964H200.553Z" fill="white"/>
<path d="M203.983 47.5909C203.535 47.5909 203.123 47.4837 202.747 47.2693C202.375 47.055 202.08 46.762 201.861 46.3905C201.646 46.0142 201.539 45.6021 201.539 45.1543C201.539 44.7018 201.646 44.2897 201.861 43.9182C202.08 43.5466 202.375 43.2537 202.747 43.0393C203.123 42.8249 203.535 42.7178 203.983 42.7178C204.426 42.7178 204.836 42.8249 205.212 43.0393C205.588 43.2537 205.886 43.5466 206.105 43.9182C206.324 44.2897 206.434 44.7018 206.434 45.1543C206.434 45.6069 206.324 46.0189 206.105 46.3905C205.886 46.762 205.588 47.055 205.212 47.2693C204.836 47.4837 204.426 47.5909 203.983 47.5909ZM203.99 47.0764C204.338 47.0764 204.655 46.9931 204.94 46.8263C205.226 46.6549 205.45 46.4238 205.612 46.1332C205.774 45.8379 205.855 45.5092 205.855 45.1472C205.855 44.7899 205.774 44.466 205.612 44.1754C205.45 43.8801 205.226 43.649 204.94 43.4823C204.655 43.3156 204.338 43.2322 203.99 43.2322C203.638 43.2322 203.318 43.3156 203.033 43.4823C202.747 43.649 202.523 43.8777 202.361 44.1683C202.199 44.4589 202.118 44.7852 202.118 45.1472C202.118 45.5092 202.199 45.8379 202.361 46.1332C202.523 46.4238 202.747 46.6549 203.033 46.8263C203.318 46.9931 203.638 47.0764 203.99 47.0764Z" fill="white"/>
<path d="M209.944 44.9185C210.234 45.0043 210.461 45.1567 210.623 45.3758C210.785 45.5902 210.866 45.8498 210.866 46.1547C210.866 46.4167 210.806 46.6501 210.687 46.8549C210.568 47.0598 210.394 47.2217 210.165 47.3408C209.942 47.4551 209.677 47.5123 209.372 47.5123H207.429V42.7964H209.051C209.46 42.7964 209.787 42.9083 210.03 43.1322C210.273 43.3561 210.394 43.6419 210.394 43.9896C210.394 44.1849 210.354 44.3612 210.273 44.5184C210.196 44.6756 210.087 44.809 209.944 44.9185ZM207.986 43.2965V44.7613H208.994C209.26 44.7613 209.465 44.6946 209.608 44.5613C209.751 44.4279 209.822 44.2493 209.822 44.0254C209.822 43.8015 209.751 43.6252 209.608 43.4966C209.47 43.3632 209.265 43.2965 208.994 43.2965H207.986ZM209.315 47.0121C209.625 47.0121 209.865 46.9335 210.037 46.7763C210.208 46.6144 210.294 46.4024 210.294 46.1404C210.294 45.8784 210.208 45.6688 210.037 45.5116C209.865 45.3496 209.625 45.2687 209.315 45.2687H207.986V47.0121H209.315Z" fill="white"/>
</svg>
