<svg width="32" height="32" viewBox="0 0 32 32" fill="none" xmlns="http://www.w3.org/2000/svg">
<path d="M16 32C24.8366 32 32 24.8366 32 16C32 7.16344 24.8366 0 16 0C7.16344 0 0 7.16344 0 16C0 24.8366 7.16344 32 16 32Z" fill="#37BBFE"/>
<path d="M23.9847 9.38149C24.1271 8.46094 23.2519 7.73434 22.4334 8.09371L6.13122 15.2512C5.54426 15.5089 5.5872 16.3981 6.19597 16.5919L9.55783 17.6625C10.1995 17.8669 10.8943 17.7611 11.4546 17.3741L19.0343 12.1375C19.2629 11.9795 19.512 12.3046 19.3167 12.5058L13.8607 18.131C13.3314 18.6767 13.4365 19.6014 14.0731 20.0006L20.1817 23.8312C20.8669 24.2608 21.7482 23.8293 21.8763 23.0013L23.9847 9.38149Z" fill="white"/>
</svg>
