<svg width="46" height="46" viewBox="0 0 46 46" fill="none" xmlns="http://www.w3.org/2000/svg">
<path d="M23 46C35.7025 46 46 35.7025 46 23C46 10.2975 35.7025 0 23 0C10.2975 0 0 10.2975 0 23C0 35.7025 10.2975 46 23 46Z" fill="#37BBFE"/>
<path d="M34.478 13.4859C34.6827 12.1626 33.4246 11.1181 32.248 11.6347L8.81363 21.9236C7.96988 22.2941 8.0316 23.5722 8.9067 23.8508L13.7394 25.3899C14.6618 25.6836 15.6605 25.5316 16.466 24.9752L27.3618 17.4476C27.6904 17.2206 28.0485 17.6878 27.7677 17.9771L19.9247 26.0633C19.1639 26.8477 19.3149 28.177 20.2301 28.7508L29.0112 34.2574C29.9961 34.8749 31.2631 34.2546 31.4472 33.0643L34.478 13.4859Z" fill="white"/>
</svg>
