<svg width="25" height="25" viewBox="0 0 25 25" fill="none" xmlns="http://www.w3.org/2000/svg">
<path d="M25 12.4998C25.0018 14.9555 24.2792 17.3572 22.9226 19.4047C21.566 21.4522 19.6355 23.0547 17.3725 24.012C15.1095 24.9692 12.6143 25.2386 10.1989 24.7865C7.78353 24.3345 5.55505 23.181 3.79206 21.4703C2.02907 19.7596 0.80977 17.5676 0.286586 15.1683C-0.236599 12.7689 -0.04046 10.2687 0.850484 7.98015C1.74143 5.69158 3.28765 3.71621 5.29587 2.30094C7.30409 0.885682 9.68521 0.093323 12.1416 0.022913C12.378 -0.00763767 12.6173 -0.00763767 12.8537 0.022913C16.105 0.113278 19.1929 1.46713 21.461 3.79672C23.7292 6.12631 24.9988 9.24956 25 12.4998ZM8.31596 22.3892C8.58332 22.5018 8.85436 22.6033 9.12909 22.6937C7.49148 19.8537 6.63516 16.6311 6.64709 13.3534H1.78414C1.94279 15.3121 2.63551 17.19 3.78706 18.783C4.93861 20.376 6.50496 21.6232 8.31596 22.3892ZM2.5941 8.32192C2.15117 9.36675 1.87878 10.4758 1.78729 11.6068H6.64709C6.63722 8.3488 7.48094 5.14495 9.09435 2.31382C8.83226 2.40112 8.5728 2.49894 8.31596 2.60728C5.73922 3.69857 3.68759 5.74761 2.5941 8.32192ZM16.5988 11.6068C16.5599 10.3828 16.4221 9.16399 16.1867 7.96219C15.9565 6.73266 15.5785 5.53542 15.0609 4.39646C14.3552 2.89443 13.4679 1.91464 12.6974 1.76634C12.5642 1.76435 12.431 1.76435 12.2979 1.76634C11.5274 1.91464 10.6401 2.89443 9.93432 4.39804C9.41733 5.53706 9.03988 6.73431 8.81015 7.96377C8.57483 9.16504 8.43702 10.3834 8.39807 11.6068H16.5988ZM15.0609 20.5622C15.5785 19.4232 15.9565 18.226 16.1867 16.9964C16.4214 15.7951 16.5587 14.5768 16.5972 13.3534H8.39965C8.43857 14.5774 8.57638 15.7962 8.81173 16.998C9.04154 18.2269 9.41899 19.4237 9.9359 20.5622C10.7048 22.1967 11.6869 23.2128 12.5 23.2128C13.3131 23.2128 14.2952 22.1967 15.0625 20.5622H15.0609ZM22.4059 16.6777C22.8538 15.6206 23.1273 14.4979 23.2159 13.3534H18.3498C18.3624 16.6322 17.506 19.856 15.8678 22.6969C16.1425 22.6064 16.4146 22.5044 16.684 22.3908C19.2605 21.2999 21.3121 19.2514 22.4059 16.6777ZM16.684 2.60728C16.4269 2.49883 16.1657 2.40041 15.9009 2.31224C17.5145 5.14332 18.3582 8.3472 18.3482 11.6052H23.2127C23.0478 9.65344 22.3526 7.78372 21.202 6.19796C20.0514 4.61219 18.4892 3.37061 16.684 2.60728Z" fill="white"/>
<path d="M16.5988 11.6068C16.5599 10.3828 16.4221 9.16399 16.1867 7.96219C15.9565 6.73266 15.5785 5.53542 15.0609 4.39646C14.3552 2.89443 13.4679 1.91464 12.6974 1.76634C12.5642 1.76435 12.431 1.76435 12.2979 1.76634C11.5274 1.91464 10.6401 2.89443 9.93432 4.39804C9.41733 5.53706 9.03988 6.73431 8.81015 7.96377C8.57483 9.16504 8.43702 10.3834 8.39807 11.6068H16.5988Z" fill="#FF5555"/>
<path d="M16.684 2.60728C16.4269 2.49883 16.1657 2.40041 15.9009 2.31224C17.5145 5.14332 18.3582 8.3472 18.3482 11.6052H23.2127C23.0478 9.65344 22.3526 7.78372 21.202 6.19796C20.0514 4.61219 18.4892 3.37061 16.684 2.60728Z" fill="#FF5555"/>
<path d="M22.4059 16.6777C22.8538 15.6206 23.1273 14.4979 23.2159 13.3534H18.3498C18.3624 16.6322 17.506 19.856 15.8678 22.6969C16.1425 22.6064 16.4146 22.5044 16.684 22.3908C19.2605 21.2999 21.3121 19.2514 22.4059 16.6777Z" fill="#FF5555"/>
<path d="M15.0609 20.5622C15.5785 19.4232 15.9565 18.226 16.1867 16.9964C16.4214 15.7951 16.5587 14.5768 16.5972 13.3534H8.39965C8.43857 14.5774 8.57638 15.7962 8.81173 16.998C9.04154 18.2269 9.41899 19.4237 9.9359 20.5622C10.7048 22.1967 11.6869 23.2128 12.5 23.2128C13.3131 23.2128 14.2952 22.1967 15.0625 20.5622H15.0609Z" fill="#FF5555"/>
<path d="M8.31596 22.3892C8.58332 22.5018 8.85436 22.6033 9.12909 22.6937C7.49148 19.8537 6.63516 16.6311 6.64709 13.3534H1.78414C1.94279 15.3121 2.63551 17.19 3.78706 18.783C4.93861 20.376 6.50496 21.6232 8.31596 22.3892Z" fill="#FF5555"/>
<path d="M2.5941 8.32192C2.15117 9.36675 1.87878 10.4758 1.78729 11.6068H6.64709C6.63722 8.3488 7.48094 5.14495 9.09435 2.31382C8.83226 2.40112 8.5728 2.49894 8.31596 2.60728C5.73922 3.69857 3.68759 5.74761 2.5941 8.32192Z" fill="#FF5555"/>
</svg>
