<svg width="45" height="45" viewBox="0 0 45 45" fill="none" xmlns="http://www.w3.org/2000/svg">
<path d="M44.968 22.4997C44.9712 26.9198 43.6715 31.2429 41.2313 34.9284C38.7911 38.614 35.3187 41.4985 31.2482 43.2215C27.1777 44.9445 22.6896 45.4294 18.345 44.6157C14.0004 43.8021 9.99198 41.7258 6.82085 38.6466C3.64972 35.5673 1.45655 31.6217 0.515487 27.3029C-0.425575 22.9841 -0.0727762 18.4837 1.52978 14.3643C3.13234 10.2448 5.91356 6.68917 9.52579 4.1417C13.138 1.59423 17.421 0.167981 21.8393 0.0412434C22.2645 -0.0137478 22.695 -0.0137478 23.1201 0.0412434C28.9684 0.2039 34.5226 2.64083 38.6024 6.8341C42.6822 11.0274 44.9658 16.6492 44.968 22.4997ZM14.9581 40.3006C15.439 40.5032 15.9265 40.6859 16.4207 40.8487C13.4751 35.7366 11.9348 29.9361 11.9562 24.0361H3.20916C3.49453 27.5618 4.74055 30.942 6.81186 33.8094C8.88318 36.6768 11.7006 38.9218 14.9581 40.3006ZM4.66606 14.9795C3.86936 16.8601 3.3794 18.8564 3.21484 20.8923H11.9562C11.9385 15.0278 13.4561 9.26092 16.3582 4.16487C15.8868 4.32202 15.4201 4.49809 14.9581 4.6931C10.3233 6.65742 6.63294 10.3457 4.66606 14.9795ZM29.8565 20.8923C29.7866 18.6891 29.5387 16.4952 29.1153 14.3319C28.7012 12.1188 28.0213 9.96375 27.0904 7.91362C25.8209 5.20998 24.2249 3.44636 22.839 3.1794C22.5995 3.17583 22.36 3.17583 22.1205 3.1794C20.7346 3.44636 19.1385 5.20998 17.8691 7.91646C16.9391 9.96671 16.2602 12.1218 15.847 14.3348C15.4237 16.4971 15.1758 18.69 15.1058 20.8923H29.8565ZM27.0904 37.0119C28.0214 34.9618 28.7013 32.8068 29.1153 30.5936C29.5375 28.4312 29.7845 26.2382 29.8537 24.0361H15.1086C15.1786 26.2393 15.4265 28.4332 15.8498 30.5964C16.2632 32.8085 16.9421 34.9626 17.8719 37.0119C19.255 39.9541 21.0214 41.783 22.484 41.783C23.9466 41.783 25.713 39.9541 27.0933 37.0119H27.0904ZM40.3019 30.0199C41.1075 28.1171 41.5995 26.0963 41.7588 24.0361H33.0061C33.0288 29.938 31.4884 35.7407 28.5416 40.8544C29.0358 40.6915 29.5252 40.5079 30.0099 40.3034C34.6442 38.3398 38.3344 34.6526 40.3019 30.0199ZM30.0099 4.6931C29.5474 4.49789 29.0775 4.32073 28.6013 4.16203C31.5036 9.25798 33.0212 15.025 33.0032 20.8894H41.7531C41.4566 17.3762 40.206 14.0107 38.1364 11.1563C36.0668 8.30194 33.2569 6.0671 30.0099 4.6931Z" fill="white"/>
<path d="M29.8565 20.8923C29.7866 18.6891 29.5387 16.4952 29.1153 14.3319C28.7012 12.1188 28.0213 9.96375 27.0904 7.91362C25.8209 5.20998 24.2249 3.44636 22.839 3.1794C22.5995 3.17583 22.36 3.17583 22.1205 3.1794C20.7346 3.44636 19.1385 5.20998 17.8691 7.91646C16.9391 9.96671 16.2602 12.1218 15.847 14.3348C15.4237 16.4971 15.1758 18.69 15.1058 20.8923H29.8565Z" fill="#FF5555"/>
<path d="M30.0099 4.6931C29.5474 4.49789 29.0775 4.32073 28.6013 4.16203C31.5036 9.25798 33.0212 15.025 33.0032 20.8894H41.7531C41.4566 17.3762 40.206 14.0107 38.1364 11.1563C36.0668 8.30194 33.2569 6.0671 30.0099 4.6931Z" fill="#FF5555"/>
<path d="M40.3019 30.0199C41.1075 28.1171 41.5995 26.0963 41.7588 24.0361H33.0061C33.0288 29.938 31.4884 35.7407 28.5416 40.8544C29.0358 40.6915 29.5252 40.5079 30.0099 40.3034C34.6442 38.3398 38.3344 34.6526 40.3019 30.0199Z" fill="#FF5555"/>
<path d="M27.0904 37.0119C28.0214 34.9618 28.7013 32.8068 29.1153 30.5936C29.5375 28.4312 29.7845 26.2382 29.8537 24.0361H15.1086C15.1786 26.2393 15.4265 28.4332 15.8498 30.5964C16.2632 32.8085 16.9421 34.9626 17.8719 37.0119C19.255 39.9541 21.0214 41.783 22.484 41.783C23.9466 41.783 25.713 39.9541 27.0933 37.0119H27.0904Z" fill="#FF5555"/>
<path d="M14.9581 40.3006C15.439 40.5032 15.9265 40.6859 16.4207 40.8487C13.4751 35.7366 11.9348 29.9361 11.9562 24.0361H3.20916C3.49453 27.5618 4.74055 30.942 6.81186 33.8094C8.88318 36.6768 11.7006 38.9218 14.9581 40.3006Z" fill="#FF5555"/>
<path d="M4.66606 14.9795C3.86936 16.8601 3.3794 18.8564 3.21484 20.8923H11.9562C11.9385 15.0278 13.4561 9.26092 16.3582 4.16487C15.8868 4.32202 15.4201 4.49809 14.9581 4.6931C10.3233 6.65742 6.63294 10.3457 4.66606 14.9795Z" fill="#FF5555"/>
</svg>
