<svg width="32" height="32" viewBox="0 0 32 32" fill="none" xmlns="http://www.w3.org/2000/svg">
<path d="M29.7143 16C29.7143 23.5742 23.5742 29.7143 16 29.7143C13.1111 29.7143 10.4307 28.821 8.22018 27.2957L3.53247 28.4675L4.76087 23.861C3.20105 21.6351 2.28571 18.9245 2.28571 16C2.28571 8.42581 8.42581 2.28571 16 2.28571C23.5742 2.28571 29.7143 8.42581 29.7143 16Z" fill="url(#paint0_linear_2005_6)"/>
<path fill-rule="evenodd" clip-rule="evenodd" d="M16 32C24.8366 32 32 24.8366 32 16C32 7.16344 24.8366 0 16 0C7.16344 0 0 7.16344 0 16C0 18.8696 0.755429 21.5627 2.07825 23.8914L0 32L8.35984 30.0615C10.6302 31.2976 13.233 32 16 32ZM16 29.5385C23.4771 29.5385 29.5385 23.4771 29.5385 16C29.5385 8.52291 23.4771 2.46154 16 2.46154C8.52291 2.46154 2.46154 8.52291 2.46154 16C2.46154 18.887 3.36514 21.5629 4.90496 23.7602L3.69231 28.3077L8.31992 27.1507C10.5022 28.6567 13.1481 29.5385 16 29.5385Z" fill="white"/>
<path d="M12 8.5713C11.6197 7.80721 11.036 7.87486 10.4465 7.87486C9.39291 7.87486 7.75 9.13689 7.75 11.4857C7.75 13.4106 8.59823 15.5177 11.4565 18.6698C14.2149 21.7119 17.8393 23.2855 20.8482 23.2319C23.8571 23.1784 24.4762 20.589 24.4762 19.7146C24.4762 19.3271 24.2357 19.1337 24.0701 19.0811C23.0447 18.589 21.1535 17.6721 20.7232 17.4999C20.2929 17.3277 20.0682 17.5607 19.9286 17.6874C19.5384 18.0592 18.7649 19.1552 18.5 19.4017C18.2352 19.6482 17.8403 19.5234 17.676 19.4303C17.0713 19.1877 15.4319 18.4584 14.1251 17.1915C12.5089 15.6249 12.4141 15.0858 12.1096 14.6061C11.8661 14.2222 12.0448 13.9867 12.1339 13.8838C12.4822 13.4821 12.963 12.8617 13.1786 12.5535C13.3942 12.2451 13.2231 11.7771 13.1203 11.4857C12.6786 10.232 12.3043 9.18252 12 8.5713Z" fill="white"/>
<defs>
<linearGradient id="paint0_linear_2005_6" x1="30" y1="4" x2="-7.7486e-07" y2="32" gradientUnits="userSpaceOnUse">
<stop stop-color="#5BD066"/>
<stop offset="1" stop-color="#27B43E"/>
</linearGradient>
</defs>
</svg>
