<svg width="46" height="46" viewBox="0 0 46 46" fill="none" xmlns="http://www.w3.org/2000/svg">
<path d="M42.7143 23C42.7143 33.8879 33.8879 42.7143 23 42.7143C18.8472 42.7143 14.9942 41.4302 11.8165 39.2375L5.07792 40.9221L6.84375 34.3002C4.60151 31.1004 3.28571 27.2039 3.28571 23C3.28571 12.1121 12.1121 3.28571 23 3.28571C33.8879 3.28571 42.7143 12.1121 42.7143 23Z" fill="url(#paint0_linear_17_69)"/>
<path fill-rule="evenodd" clip-rule="evenodd" d="M23 46C35.7026 46 46 35.7026 46 23C46 10.2974 35.7026 0 23 0C10.2974 0 0 10.2974 0 23C0 27.125 1.08593 30.9964 2.98749 34.3439L0 46L12.0173 43.2134C15.2809 44.9903 19.0225 46 23 46ZM23 42.4616C33.7484 42.4616 42.4616 33.7484 42.4616 23C42.4616 12.2517 33.7484 3.53847 23 3.53847C12.2517 3.53847 3.53847 12.2517 3.53847 23C3.53847 27.15 4.83739 30.9966 7.05088 34.1553L5.30769 40.6923L11.9599 39.0292C15.0969 41.194 18.9004 42.4616 23 42.4616Z" fill="white"/>
<path d="M17.25 12.3212C16.7033 11.2229 15.8643 11.3201 15.0169 11.3201C13.5023 11.3201 11.1406 13.1343 11.1406 16.5107C11.1406 19.2778 12.36 22.3067 16.4687 26.8379C20.4339 31.2108 25.644 33.4729 29.9693 33.3958C34.2946 33.319 35.1846 29.5967 35.1846 28.3398C35.1846 27.7827 34.8388 27.5047 34.6007 27.4291C33.1267 26.7217 30.4081 25.4037 29.7896 25.1561C29.1711 24.9085 28.8481 25.2435 28.6473 25.4257C28.0864 25.9601 26.9746 27.5356 26.5938 27.89C26.2131 28.2443 25.6455 28.0649 25.4092 27.931C24.54 27.5823 22.1833 26.534 20.3049 24.7128C17.9816 22.4608 17.8452 21.6859 17.4075 20.9962C17.0575 20.4444 17.3144 20.1059 17.4425 19.9579C17.9431 19.3805 18.6343 18.4887 18.9443 18.0456C19.2541 17.6024 19.0082 16.9296 18.8605 16.5107C18.2255 14.7085 17.6875 13.1999 17.25 12.3212Z" fill="white"/>
<defs>
<linearGradient id="paint0_linear_17_69" x1="43.125" y1="5.75" x2="-1.11386e-06" y2="46" gradientUnits="userSpaceOnUse">
<stop stop-color="#5BD066"/>
<stop offset="1" stop-color="#27B43E"/>
</linearGradient>
</defs>
</svg>
