<svg width="24" height="29" viewBox="0 0 24 29" fill="none" xmlns="http://www.w3.org/2000/svg">
<path d="M11.5605 0C13.8484 0.0012759 16.0844 0.682504 17.9842 1.95725C19.8868 3.23411 21.3687 5.04614 22.2423 7.16441C23.1172 9.28487 23.3457 11.6169 22.8994 13.8669C22.4538 16.1157 21.3524 18.1825 19.7344 19.8066C17.6412 21.9062 12.7168 24.9403 12.4253 28.1328C12.3827 28.6095 12.0357 28.9999 11.5605 29C11.0853 29 10.7396 28.6096 10.6958 28.1328C10.4041 24.9402 5.47528 21.9006 3.38101 19.7997C1.76493 18.175 0.665225 16.1087 0.221091 13.8606C-0.223825 11.6112 0.00599878 9.28003 0.881269 7.16063C1.75524 5.04351 3.23677 3.23275 5.13876 1.95662C7.03811 0.682551 9.27345 0.00146257 11.5605 0Z" fill="#FF4433"/>
<path d="M11.5602 15.5973C10.4793 15.5972 9.4427 15.1678 8.67827 14.4036C8.01151 13.7369 7.59657 12.8596 7.50413 11.9212C7.4117 10.9828 7.64749 10.0414 8.17134 9.25736C8.6952 8.47334 9.47469 7.89521 10.377 7.62148C11.2793 7.34775 12.2487 7.39536 13.1198 7.75619C13.991 8.11702 14.7101 8.76875 15.1546 9.60033C15.5991 10.4319 15.7415 11.3919 15.5575 12.3167C15.3736 13.2415 14.8747 14.0739 14.1458 14.6721C13.4169 15.2703 12.5032 15.5973 11.5602 15.5973Z" fill="white"/>
</svg>
