<svg width="37" height="46" viewBox="0 0 37 46" fill="none" xmlns="http://www.w3.org/2000/svg">
<path d="M18.3374 0C21.9665 0.00202384 25.5131 1.08259 28.5267 3.1046C31.5446 5.12996 33.8952 8.00423 35.2809 11.3642C36.6687 14.7277 37.0312 18.4268 36.3231 21.9957C35.6163 25.5628 33.8693 28.8412 31.3029 31.4174C27.9826 34.7477 20.1715 39.5605 19.709 44.6244C19.6415 45.3806 19.0911 45.9998 18.3374 46C17.5835 46 17.0353 45.3807 16.9658 44.6244C16.503 39.5604 8.68492 34.7389 5.36298 31.4064C2.79955 28.8293 1.05518 25.5518 0.350696 21.9858C-0.355033 18.4177 0.00951531 14.72 1.39787 11.3582C2.78418 8.00006 5.13419 5.12781 8.15113 3.1036C11.1639 1.08267 14.7096 0.00231993 18.3374 0Z" fill="#FF4433"/>
<path d="M18.3369 24.7406C16.6224 24.7404 14.9781 24.0593 13.7655 22.8471C12.7079 21.7895 12.0497 20.3979 11.9031 18.9095C11.7565 17.421 12.1305 15.9277 12.9614 14.6841C13.7924 13.4405 15.0288 12.5234 16.4601 12.0892C17.8914 11.6551 19.4289 11.7306 20.8107 12.3029C22.1926 12.8753 23.3332 13.909 24.0383 15.2281C24.7434 16.5472 24.9693 18.0699 24.6775 19.5368C24.3857 21.0038 23.5943 22.3242 22.4382 23.273C21.282 24.2219 19.8326 24.7405 18.3369 24.7406Z" fill="white"/>
</svg>
