<svg width="35" height="35" viewBox="0 0 35 35" fill="none" xmlns="http://www.w3.org/2000/svg">
<path fill-rule="evenodd" clip-rule="evenodd" d="M32.6973 0C33.308 0 33.8937 0.242575 34.3256 0.674384C34.7574 1.10621 35 1.69191 35 2.3026V11.0577C35 11.0593 35 11.0608 35 11.0624V26.2272C35 26.2288 35 26.2304 35 26.232V32.6974C35 33.308 34.7574 33.8937 34.3256 34.3256C33.8937 34.7574 33.308 35 32.6973 35H2.3026C1.69192 35 1.10621 34.7574 0.67439 34.3256C0.242582 33.8937 6.82612e-06 33.308 6.82612e-06 32.6974V31.5979C-6.88469e-06 31.5963 3.79007e-06 31.5947 6.82612e-06 31.5931V2.3026C1.15717e-05 1.69191 0.242575 1.10621 0.67439 0.674384C1.10621 0.242566 1.69192 1.13323e-05 2.3026 0H32.6973ZM19.033 29.1375C19.0292 29.1381 19.0252 29.1387 19.0213 29.1393L15.9991 29.615C15.9952 29.6156 15.9913 29.6163 15.9874 29.6168L0.921024 31.9882V32.6974C0.921024 33.0638 1.0666 33.4152 1.32568 33.6743C1.58476 33.9334 1.9362 34.0789 2.3026 34.0789H32.6973C33.0638 34.0789 33.4152 33.9334 33.6743 33.6743C33.9334 33.4152 34.0789 33.0638 34.0789 32.6974V26.7693L19.033 29.1375ZM0.921024 31.0558L15.498 28.7614C15.7624 25.5573 14.9066 23.667 13.7657 22.5841C12.5682 21.4475 10.9745 21.1208 9.76232 21.196C9.57054 21.2079 9.39155 21.0995 9.31325 20.924C7.11939 16.0068 7.49332 12.1678 9.2996 9.53295C9.71113 8.93265 10.1933 8.40054 10.7295 7.93642L0.921024 6.11689V31.0558ZM24.7706 9.89573C23.1004 7.58206 20.2376 6.43571 17.3536 6.47464C14.4687 6.51359 11.6473 7.73728 10.0593 10.0537C8.51578 12.3053 8.06849 15.6934 10.0303 20.2652C11.3807 20.2518 13.0781 20.6616 14.3998 21.9161C15.7645 23.2114 16.6565 25.3378 16.4328 28.6143L18.4929 28.2901C18.506 26.2156 18.7756 24.2407 19.7371 22.7775C20.7511 21.2344 22.4701 20.3484 25.1631 20.3875C26.9625 15.6041 26.3957 12.1468 24.7706 9.89573ZM26.1056 10.2969C27.4946 12.881 27.6926 16.469 25.9049 21.025C25.8332 21.2078 25.6535 21.325 25.4573 21.3169C22.7982 21.2071 21.3364 22.0209 20.5069 23.2833C19.7159 24.4869 19.4408 26.1799 19.4154 28.1448L34.0789 25.8369V11.4612L26.1056 10.2969ZM2.3026 0.921017C1.9362 0.921028 1.58476 1.06658 1.32568 1.32567C1.06659 1.58476 0.921028 1.93619 0.921024 2.3026V5.18017L11.7323 7.18567C13.3777 6.12302 15.3635 5.58038 17.3411 5.55368C20.4213 5.5121 23.5642 6.72102 25.4547 9.27099L34.0789 10.5304V2.3026C34.0789 1.93618 33.9334 1.58476 33.6743 1.32567C33.4152 1.06659 33.0637 0.921017 32.6973 0.921017H2.3026Z" fill="white"/>
<path d="M24.7706 9.89573C23.1004 7.58206 20.2376 6.43571 17.3536 6.47464C14.4687 6.51359 11.6473 7.73728 10.0593 10.0537C8.51578 12.3053 8.06849 15.6934 10.0303 20.2652C11.3807 20.2518 13.0781 20.6616 14.3998 21.9161C15.7645 23.2114 16.6565 25.3378 16.4328 28.6143L18.4929 28.2901C18.506 26.2156 18.7756 24.2407 19.7371 22.7775C20.7511 21.2344 22.4701 20.3484 25.1631 20.3875C26.9625 15.6041 26.3957 12.1468 24.7706 9.89573Z" fill="white"/>
<path d="M24.7706 9.89573C23.1004 7.58206 20.2376 6.43571 17.3536 6.47464C14.4687 6.51359 11.6473 7.73728 10.0593 10.0537C8.51578 12.3053 8.06849 15.6934 10.0303 20.2652C11.3807 20.2518 13.0781 20.6616 14.3998 21.9161C15.7645 23.2114 16.6565 25.3378 16.4328 28.6143L18.4929 28.2901C18.506 26.2156 18.7756 24.2407 19.7371 22.7775C20.7511 21.2344 22.4701 20.3484 25.1631 20.3875C26.9625 15.6041 26.3957 12.1468 24.7706 9.89573Z" fill="#0073FA"/>
<path d="M26.1056 10.2969C27.4946 12.881 27.6926 16.469 25.9049 21.025C25.8332 21.2078 25.6535 21.325 25.4573 21.3169C22.7982 21.2071 21.3364 22.0209 20.5069 23.2833C19.7159 24.4869 19.4408 26.1799 19.4154 28.1448L34.0789 25.8369V11.4612L26.1056 10.2969Z" fill="#19AA1E"/>
<path d="M0.921024 31.0558L15.498 28.7614C15.7624 25.5573 14.9066 23.667 13.7657 22.5841C12.5682 21.4475 10.9745 21.1208 9.76232 21.196C9.57054 21.2079 9.39155 21.0995 9.31325 20.924C7.11939 16.0068 7.49332 12.1678 9.2996 9.53295C9.71113 8.93265 10.1933 8.40054 10.7295 7.93642L0.921024 6.11689V31.0558Z" fill="#19AA1E"/>
<path d="M19.033 29.1375C19.0292 29.1381 19.0252 29.1387 19.0213 29.1393L15.9991 29.615C15.9952 29.6156 15.9913 29.6163 15.9874 29.6168L0.921024 31.9882V32.6974C0.921024 33.0638 1.0666 33.4152 1.32568 33.6743C1.58476 33.9334 1.9362 34.0789 2.3026 34.0789H32.6973C33.0638 34.0789 33.4152 33.9334 33.6743 33.6743C33.9334 33.4152 34.0789 33.0638 34.0789 32.6974V26.7693L19.033 29.1375Z" fill="#82D714"/>
<path d="M2.3026 0.921017C1.9362 0.921028 1.58476 1.06658 1.32568 1.32567C1.06659 1.58476 0.921028 1.93619 0.921024 2.3026V5.18017L11.7323 7.18567C13.3777 6.12302 15.3635 5.58038 17.3411 5.55368C20.4213 5.5121 23.5642 6.72102 25.4547 9.27099L34.0789 10.5304V2.3026C34.0789 1.93618 33.9334 1.58476 33.6743 1.32567C33.4152 1.06659 33.0637 0.921017 32.6973 0.921017H2.3026Z" fill="#FFB919"/>
</svg>
