<svg width="26" height="26" viewBox="0 0 26 26" fill="none" xmlns="http://www.w3.org/2000/svg">
<path d="M13 26C20.1797 26 26 20.1797 26 13C26 5.8203 20.1797 0 13 0C5.8203 0 0 5.8203 0 13C0 20.1797 5.8203 26 13 26Z" fill="#37BBFE"/>
<path d="M19.4876 7.62246C19.6033 6.87451 18.8922 6.28415 18.2271 6.57614L4.98162 12.3916C4.50471 12.601 4.5396 13.3234 5.03422 13.4809L7.76574 14.3508C8.28713 14.5168 8.85161 14.4309 9.30689 14.1164L15.4654 9.86171C15.6511 9.73338 15.8535 9.99746 15.6948 10.161L11.2618 14.7314C10.8318 15.1748 10.9171 15.9261 11.4344 16.2505L16.3976 19.3629C16.9543 19.7119 17.6704 19.3613 17.7745 18.6885L19.4876 7.62246Z" fill="white"/>
</svg>
