<svg width="32" height="32" viewBox="0 0 32 32" fill="none" xmlns="http://www.w3.org/2000/svg">
<path d="M32 15.9998C32.0023 19.143 31.0774 22.2172 29.3409 24.838C27.6044 27.4588 25.1334 29.5101 22.2368 30.7353C19.3401 31.9605 16.1463 32.3054 13.0546 31.7268C9.96292 31.1481 7.11047 29.6717 4.85384 27.482C2.5972 25.2923 1.03651 22.4865 0.36683 19.4154C-0.302846 16.3442 -0.0517888 13.1439 1.08862 10.2146C2.22903 7.28522 4.20819 4.75674 6.77871 2.94521C9.34924 1.13367 12.3971 0.119453 15.5412 0.0293286C15.8438 -0.00977621 16.1501 -0.00977621 16.4527 0.0293286C20.6144 0.144996 24.5669 1.87792 27.4701 4.8598C30.3734 7.84168 31.9984 11.8394 32 15.9998ZM10.6444 28.6582C10.9867 28.8022 11.3336 28.9322 11.6852 29.048C9.5891 25.4127 8.49301 21.2879 8.50827 17.0923H2.28369C2.48677 19.5995 3.37346 22.0032 4.84744 24.0422C6.32142 26.0813 8.32635 27.6777 10.6444 28.6582ZM3.32045 10.6521C2.7535 11.9894 2.40484 13.409 2.28774 14.8567H8.50827C8.49564 10.6865 9.5756 6.58554 11.6408 2.96169C11.3053 3.07343 10.9732 3.19864 10.6444 3.33732C7.34621 4.73417 4.72011 7.35694 3.32045 10.6521ZM21.2464 14.8567C21.1967 13.29 21.0203 11.7299 20.719 10.1916C20.4243 8.6178 19.9404 7.08533 19.278 5.62747C18.3746 3.70487 17.2389 2.45075 16.2526 2.26091C16.0822 2.25837 15.9117 2.25837 15.7413 2.26091C14.7551 2.45075 13.6193 3.70487 12.7159 5.62949C12.0542 7.08744 11.571 8.61991 11.277 10.1936C10.9758 11.7313 10.7994 13.2907 10.7495 14.8567H21.2464ZM19.278 26.3196C19.9405 24.8617 20.4243 23.3292 20.719 21.7554C21.0194 20.2177 21.1951 18.6583 21.2444 17.0923H10.7515C10.8014 18.659 10.9778 20.2191 11.279 21.7575C11.5732 23.3305 12.0563 24.8623 12.7179 26.3196C13.7022 28.4118 14.9592 29.7124 16 29.7124C17.0408 29.7124 18.2978 28.4118 19.28 26.3196H19.278ZM28.6795 21.3475C29.2528 19.9944 29.6029 18.5574 29.7163 17.0923H23.4877C23.5039 21.2893 22.4077 25.4156 20.3107 29.052C20.6624 28.9362 21.0107 28.8056 21.3556 28.6602C24.6534 27.2638 27.2795 24.6418 28.6795 21.3475ZM21.3556 3.33732C21.0265 3.1985 20.6921 3.07252 20.3532 2.95967C22.4185 6.58345 23.4985 10.6844 23.4857 14.8547H29.7123C29.5012 12.3564 28.6113 9.96317 27.1385 7.93338C25.6658 5.9036 23.6662 4.31438 21.3556 3.33732Z" fill="white"/>
<path d="M21.2464 14.8567C21.1967 13.29 21.0203 11.7299 20.719 10.1916C20.4243 8.6178 19.9404 7.08533 19.278 5.62747C18.3746 3.70487 17.2389 2.45075 16.2526 2.26091C16.0822 2.25837 15.9117 2.25837 15.7413 2.26091C14.7551 2.45075 13.6193 3.70487 12.7159 5.62949C12.0542 7.08744 11.571 8.61991 11.277 10.1936C10.9758 11.7313 10.7994 13.2907 10.7495 14.8567H21.2464Z" fill="#FF5555"/>
<path d="M21.3556 3.33732C21.0265 3.1985 20.6921 3.07252 20.3532 2.95967C22.4185 6.58345 23.4985 10.6844 23.4857 14.8547H29.7123C29.5012 12.3564 28.6113 9.96317 27.1385 7.93338C25.6658 5.9036 23.6662 4.31438 21.3556 3.33732Z" fill="#FF5555"/>
<path d="M28.6795 21.3475C29.2528 19.9944 29.6029 18.5574 29.7163 17.0923H23.4877C23.5039 21.2893 22.4077 25.4156 20.3107 29.052C20.6624 28.9362 21.0107 28.8056 21.3556 28.6602C24.6534 27.2638 27.2795 24.6418 28.6795 21.3475Z" fill="#FF5555"/>
<path d="M19.278 26.3196C19.9405 24.8617 20.4243 23.3292 20.719 21.7554C21.0194 20.2177 21.1951 18.6583 21.2444 17.0923H10.7515C10.8014 18.659 10.9778 20.2191 11.279 21.7575C11.5732 23.3305 12.0563 24.8623 12.7179 26.3196C13.7022 28.4118 14.9592 29.7124 16 29.7124C17.0408 29.7124 18.2978 28.4118 19.28 26.3196H19.278Z" fill="#FF5555"/>
<path d="M10.6444 28.6582C10.9867 28.8022 11.3336 28.9322 11.6852 29.048C9.5891 25.4127 8.49301 21.2879 8.50827 17.0923H2.28369C2.48677 19.5995 3.37346 22.0032 4.84744 24.0422C6.32142 26.0813 8.32635 27.6777 10.6444 28.6582Z" fill="#FF5555"/>
<path d="M3.32045 10.6521C2.7535 11.9894 2.40484 13.409 2.28774 14.8567H8.50827C8.49564 10.6865 9.5756 6.58554 11.6408 2.96169C11.3053 3.07343 10.9732 3.19864 10.6444 3.33732C7.34621 4.73417 4.72011 7.35694 3.32045 10.6521Z" fill="#FF5555"/>
</svg>
