<svg width="25" height="25" viewBox="0 0 25 25" fill="none" xmlns="http://www.w3.org/2000/svg">
<path d="M23.2143 12.5C23.2143 18.4173 18.4173 23.2143 12.5 23.2143C10.243 23.2143 8.14902 22.5164 6.42202 21.3247L2.75974 22.2403L3.71943 18.6414C2.50082 16.9024 1.78571 14.7847 1.78571 12.5C1.78571 6.58266 6.58266 1.78571 12.5 1.78571C18.4173 1.78571 23.2143 6.58266 23.2143 12.5Z" fill="url(#paint0_linear_2005_6)"/>
<path fill-rule="evenodd" clip-rule="evenodd" d="M12.5 25C19.4036 25 25 19.4036 25 12.5C25 5.59644 19.4036 0 12.5 0C5.59644 0 0 5.59644 0 12.5C0 14.7419 0.590179 16.8459 1.62363 18.6652L0 25L6.53113 23.4855C8.30482 24.4513 10.3383 25 12.5 25ZM12.5 23.077C18.3415 23.077 23.077 18.3415 23.077 12.5C23.077 6.65853 18.3415 1.92308 12.5 1.92308C6.65853 1.92308 1.92308 6.65853 1.92308 12.5C1.92308 14.7554 2.62902 16.846 3.832 18.5627L2.88462 22.1154L6.49994 21.2115C8.20482 22.388 10.272 23.077 12.5 23.077Z" fill="white"/>
<path d="M9.375 6.69633C9.07786 6.09938 8.62188 6.15223 8.16134 6.15223C7.33821 6.15223 6.05469 7.1382 6.05469 8.97322C6.05469 10.4771 6.71737 12.1232 8.95036 14.5858C11.1054 16.9624 13.937 18.1918 16.2877 18.1499C18.6384 18.1081 19.1221 16.0852 19.1221 15.4021C19.1221 15.0993 18.9341 14.9482 18.8047 14.9071C18.0037 14.5227 16.5262 13.8063 16.19 13.6718C15.8538 13.5372 15.6783 13.7193 15.5692 13.8183C15.2644 14.1088 14.6601 14.965 14.4531 15.1576C14.2463 15.3502 13.9378 15.2527 13.8094 15.1799C13.337 14.9904 12.0562 14.4206 11.0353 13.4309C9.77259 12.207 9.69848 11.7858 9.46063 11.411C9.27036 11.1111 9.41 10.9271 9.47964 10.8467C9.7517 10.5329 10.1273 10.0482 10.2958 9.80741C10.4642 9.56652 10.3305 9.20089 10.2503 8.97322C9.90518 7.99375 9.61277 7.17384 9.375 6.69633Z" fill="white"/>
<defs>
<linearGradient id="paint0_linear_2005_6" x1="23.4375" y1="3.125" x2="-6.0536e-07" y2="25" gradientUnits="userSpaceOnUse">
<stop stop-color="#5BD066"/>
<stop offset="1" stop-color="#27B43E"/>
</linearGradient>
</defs>
</svg>
