<svg width="29" height="36" viewBox="0 0 29 36" fill="none" xmlns="http://www.w3.org/2000/svg">
<path d="M14.351 0C17.1912 0.00158387 19.9668 0.847247 22.3252 2.42969C24.6871 4.01475 26.5267 6.26418 27.6112 8.89375C28.6972 11.526 28.9809 14.421 28.4268 17.2141C27.8736 20.0057 26.5064 22.5713 24.4979 24.5875C21.8994 27.1938 15.7864 30.9604 15.4245 34.9234C15.3716 35.5153 14.9409 35.9998 14.351 36C13.761 36 13.332 35.5153 13.2776 34.9234C12.9154 30.9603 6.7969 27.187 4.19711 24.5789C2.19095 22.562 0.825796 19.997 0.274457 17.2063C-0.277852 14.4138 0.00744677 11.52 1.09399 8.88906C2.17892 6.26091 4.01806 4.01307 6.37915 2.42891C8.73697 0.847305 11.5119 0.0018156 14.351 0Z" fill="#FF4433"/>
<path d="M14.3506 19.3622C13.0088 19.362 11.722 18.829 10.773 17.8803C9.94533 17.0527 9.43022 15.9636 9.31547 14.7987C9.20072 13.6338 9.49344 12.4652 10.1437 11.4919C10.794 10.5186 11.7617 9.80095 12.8818 9.46115C14.0019 9.12135 15.2052 9.18044 16.2867 9.62837C17.3681 10.0763 18.2608 10.8853 18.8126 11.9176C19.3644 12.95 19.5412 14.1417 19.3128 15.2897C19.0845 16.4377 18.4651 17.4711 17.5603 18.2137C16.6555 18.9563 15.5212 19.3622 14.3506 19.3622Z" fill="white"/>
</svg>
